<?xml version="1.0" encoding="utf-8"?>
<!-- Generator: Adobe Illustrator 16.0.0, SVG Export Plug-In . SVG Version: 6.00 Build 0)  -->
<!DOCTYPE svg PUBLIC "-//W3C//DTD SVG 1.1//EN" "http://www.w3.org/Graphics/SVG/1.1/DTD/svg11.dtd">
<svg version="1.1" id="Layer_1" xmlns="http://www.w3.org/2000/svg" xmlns:xlink="http://www.w3.org/1999/xlink" x="0px" y="0px"
	 width="100px" height="100px" viewBox="0 0 100 100" enable-background="new 0 0 100 100" xml:space="preserve">
<path fill-rule="evenodd" clip-rule="evenodd" d="M33.661,10.563c5.884-13.321,25.676-14.809,32.793-0.049
	c7.419-2.361,14.017-1.043,19.347,4.819c5.22,5.741,6.399,12.429,4.079,19.903c6.519,3.483,9.891,9.128,10.109,16.451
	c0.217,7.306-2.742,13.179-9.07,17.266c0.507,5.096-0.595,9.874-3.754,14.046c-3.766,4.974-8.724,7.676-15.078,7.388
	c-1.319-0.06-2.667-0.306-3.925-0.706c-1.305-0.415-1.948-0.106-2.63,1.095c-2.171,3.826-5.318,6.644-9.497,8.124
	c-5.755,2.039-11.17,1.222-16.177-2.259c-2.691-1.87-4.771-4.271-6-7.099c-2.323,0.313-4.496,0.864-6.665,0.852
	c-7.484-0.041-12.611-3.946-16.051-10.331c-1.541-2.86-2.05-5.984-1.918-9.198c0.054-1.308-0.305-2.139-1.417-2.986
	c-5.045-3.841-7.876-8.999-7.807-15.362c0.079-7.133,3.003-12.93,9.281-16.69c1.137-0.68,0.703-1.349,0.518-2.166
	c-1.602-7.072-0.273-13.445,4.801-18.766c4.962-5.203,11.043-6.525,17.901-4.687C32.895,10.312,33.28,10.445,33.661,10.563z
	 M42.356,56.789c-2.724-2.609-5.292-5.18-7.995-7.602c-0.959-0.859-2.174-1.563-3.395-1.974c-1.68-0.564-4.113,0.671-5.031,2.25
	c-1.261,2.17-1.282,4.367,0.133,5.816c4.087,4.185,8.205,8.341,12.368,12.449c1.733,1.711,4.318,2.142,6.107,1.099
	c0.779-0.454,1.462-1.106,2.106-1.751c8.863-8.867,17.728-17.73,26.532-26.653c0.778-0.789,1.327-1.932,1.653-3.01
	c0.637-2.103-0.438-4.267-2.441-5.396c-1.866-1.052-4.424-0.711-5.9,0.76c-7.901,7.877-15.807,15.749-23.713,23.621
	C42.605,56.575,42.415,56.735,42.356,56.789z"/>
</svg>
