<?xml version="1.0" encoding="utf-8"?>
<!-- Generator: Adobe Illustrator 16.0.0, SVG Export Plug-In . SVG Version: 6.00 Build 0)  -->
<!DOCTYPE svg PUBLIC "-//W3C//DTD SVG 1.1//EN" "http://www.w3.org/Graphics/SVG/1.1/DTD/svg11.dtd">
<svg version="1.1" id="Layer_1" xmlns="http://www.w3.org/2000/svg" xmlns:xlink="http://www.w3.org/1999/xlink" x="0px" y="0px"
	 width="74px" height="92px" viewBox="0 0 74 92" enable-background="new 0 0 74 92" xml:space="preserve">
<g>
	<path fill-rule="evenodd" clip-rule="evenodd" d="M74,36.33c-0.475,2.194-0.988,6.162-2.211,9.893
		c-3.096,9.438-5.438,18.844-3.722,28.961c0.851,5.019-2.142,6.774-7.682,4.779c-16.034-5.774-32.029-11.661-48.039-17.504
		c-2.816-1.028-5.692-1.915-8.437-3.113c-4.541-1.984-5.188-5.012-1.621-8.396c7.167-6.804,11.992-15.013,15.525-24.199
		c4.864-12.648,13.415-20.9,27.403-22.466c1.812-0.203,3.428-1.798,5.244-2.425c2.376-0.818,5.324-2.432,7.179-1.653
		c2.114,0.887,3.455,3.933,4.832,6.223c1.154,1.917,1.404,4.556,2.871,6.077C71.323,18.71,73.747,26.15,74,36.33z"/>
	<path fill-rule="evenodd" clip-rule="evenodd" d="M29.611,79.854c6.926,2.556,13.35,4.927,19.933,7.357
		c-3.787,4.673-7.753,5.801-12.722,3.929C32.262,89.422,29.614,85.601,29.611,79.854z"/>
</g>
</svg>
