<?xml version="1.0" encoding="utf-8"?>
<!-- Generator: Adobe Illustrator 16.0.0, SVG Export Plug-In . SVG Version: 6.00 Build 0)  -->
<!DOCTYPE svg PUBLIC "-//W3C//DTD SVG 1.1//EN" "http://www.w3.org/Graphics/SVG/1.1/DTD/svg11.dtd">
<svg version="1.1" id="Layer_1" xmlns="http://www.w3.org/2000/svg" xmlns:xlink="http://www.w3.org/1999/xlink" x="0px" y="0px"
	 width="100px" height="92px" viewBox="0 0 100 92" enable-background="new 0 0 100 92" xml:space="preserve">
<g>
	<path fill-rule="evenodd" clip-rule="evenodd" d="M25.961,24.739c0.294-4.169,1.354-8.712,3.358-13.021
		c1.121-2.412,2.403-4.973,4.85-6.049c3.824-1.682,7.235-4.317,11.467-5.064c5.567-0.983,11.097-1,16.204,1.744
		c4.305,2.313,7.036,6.143,9.249,10.322c1.729,3.265,2.474,6.809,2.783,10.451c0.099,1.159,0.131,2.156,1.523,2.868
		c0.833,0.426,1.498,1.834,1.601,2.862c0.541,5.413-0.992,10.149-5.29,13.815c-0.235,0.201-0.505,0.462-0.785,0.497
		c-1.771,0.225-2.078,1.644-2.631,2.926c-2.41,5.589-5.398,10.813-10.113,14.89c-5.395,4.662-11.742,4.46-16.941-0.497
		c-4.416-4.209-7.504-9.249-9.668-14.869c-0.413-1.073-0.907-1.885-2.169-2.405c-1.851-0.763-3.106-2.363-4.095-4.1
		c-1.534-2.695-2.759-5.5-2.598-8.654c0.057-1.117,0.353-2.302,0.869-3.29C24.005,26.343,24.917,25.765,25.961,24.739z"/>
	<path fill-rule="evenodd" clip-rule="evenodd" d="M49.896,91.923c-15.035,0-30.07-0.069-45.103,0.076
		c-2.169,0.021-3.21-1.017-3.663-2.495c-1.287-4.21-1.699-8.519-0.041-12.77c1.089-2.791,3.253-4.623,6.043-5.518
		c4.573-1.467,9.216-2.729,13.857-3.979c3.384-0.912,6.833-1.592,10.21-2.523c1.287-0.354,2.025-0.046,2.883,0.883
		c2.673,2.894,5.839,5.17,9.663,6.358c7.536,2.342,14.205,0.585,20.104-4.389c0.956-0.806,1.77-1.771,2.729-2.574
		c0.343-0.286,0.976-0.516,1.38-0.412c8.006,2.054,16.058,3.967,23.974,6.318c6.257,1.858,8.051,5.896,8.066,12.291
		c0.005,1.96-0.526,3.938-0.964,5.876c-0.453,2.001-1.694,2.856-3.765,2.856C80.146,91.923,65.021,91.923,49.896,91.923z"/>
</g>
</svg>
