<?xml version="1.0" encoding="utf-8"?>
<!-- Generator: Adobe Illustrator 16.0.0, SVG Export Plug-In . SVG Version: 6.00 Build 0)  -->
<!DOCTYPE svg PUBLIC "-//W3C//DTD SVG 1.1//EN" "http://www.w3.org/Graphics/SVG/1.1/DTD/svg11.dtd">
<svg version="1.1" id="Layer_1" xmlns="http://www.w3.org/2000/svg" xmlns:xlink="http://www.w3.org/1999/xlink" x="0px" y="0px"
	 width="100px" height="100px" viewBox="0 0 100 100" enable-background="new 0 0 100 100" xml:space="preserve">
<path fill-rule="evenodd" clip-rule="evenodd" d="M32.333,0c3.072,0.028,4.766,0.97,5.864,3.003
	c1.549,2.866,3.167,5.694,4.732,8.552c0.322,0.587,0.644,0.884,1.415,0.876c3.707-0.036,7.416-0.014,11.122,0.089
	c0.738,0.02,1.127-0.111,1.473-0.741c1.462-2.663,2.938-5.319,4.459-7.949c1.759-3.041,4.143-4.178,7.182-3.252
	c1.503,0.458,2.969,1.168,4.309,1.994c1.925,1.188,2.875,3.947,2.271,6.321c-0.757,2.981-1.594,5.943-2.459,8.895
	c-0.265,0.903-0.187,1.491,0.643,2.092c2.812,2.038,5.23,4.487,7.211,7.336c0.505,0.727,1.041,0.741,1.792,0.545
	c3.162-0.822,6.323-1.655,9.508-2.383c2.631-0.601,4.636,0.254,5.945,2.577c0.794,1.41,1.457,2.919,1.975,4.452
	c0.744,2.206-0.409,5.101-2.587,6.403c-2.765,1.653-5.595,3.205-8.459,4.683c-1.01,0.522-1.153,1.14-1.134,2.171
	c0.064,3.427,0.08,6.861-0.101,10.28c-0.053,0.998,0.192,1.389,0.966,1.82c2.508,1.397,4.983,2.854,7.465,4.297
	c3.506,2.036,4.402,4.447,3.044,8.214c-0.673,1.869-1.329,3.742-3.227,4.824c-1.605,0.916-3.24,1.305-5.075,0.764
	c-2.795-0.822-5.627-1.524-8.41-2.387c-1.002-0.31-1.576-0.18-2.214,0.691c-2.049,2.793-4.477,5.23-7.411,7.119
	c-0.726,0.468-0.823,0.937-0.581,1.75c0.805,2.693,1.521,5.415,2.242,8.135c0.952,3.592-0.303,6.091-3.749,7.51
	c-1.1,0.452-2.182,1.115-3.326,1.259c-2.731,0.343-4.981-0.752-6.438-3.066c-1.618-2.57-3.073-5.242-4.552-7.896
	c-0.352-0.632-0.699-0.841-1.454-0.737c-3.568,0.489-7.146,0.633-10.707-0.086c-0.914-0.185-1.44,0.136-1.898,0.938
	c-1.267,2.218-2.766,4.313-3.907,6.589c-1.929,3.848-5.364,5.054-9.542,3.02c-1.802-0.877-3.562-1.755-4.177-3.769
	c-0.33-1.082-0.488-2.352-0.256-3.438c0.606-2.833,1.418-5.626,2.257-8.402c0.32-1.058,0.156-1.631-0.701-2.437
	c-2.5-2.353-4.853-4.865-7.164-7.403c-0.56-0.616-1.003-0.535-1.605-0.373c-2.814,0.758-5.63,1.509-8.443,2.271
	c-3.166,0.858-6.25-0.678-7.417-3.719c-0.3-0.78-0.585-1.567-0.83-2.366c-1.031-3.357,0.016-5.977,3.08-7.713
	c2.536-1.438,5.097-2.83,7.602-4.318c0.369-0.218,0.732-0.873,0.69-1.285c-0.39-3.875-0.431-7.729,0.176-11.588
	c0.054-0.343-0.386-0.917-0.749-1.144c-2.47-1.548-4.989-3.018-7.477-4.539C0.37,36.434-0.44,34.08,0.823,30.412
	c0.61-1.77,1.298-3.458,2.871-4.636c1.554-1.163,3.246-1.522,5.129-1.009c2.855,0.778,5.73,1.49,8.564,2.339
	c0.906,0.271,1.298-0.036,1.887-0.639c2.368-2.425,4.776-4.816,7.284-7.094c0.671-0.61,0.838-1.048,0.627-1.862
	c-0.76-2.937-1.479-5.884-2.181-8.835c-0.729-3.065,0.656-5.896,3.513-7.146C29.995,0.882,31.511,0.327,32.333,0z M49.662,25.291
	c-14.34,0.027-24.717,11.625-24.866,24.564c-0.161,14.005,10.288,25.082,24.31,25.513c13.791,0.422,25.254-10.779,25.445-24.521
	C74.751,36.503,63.815,25.348,49.662,25.291z"/>
</svg>
