<?xml version="1.0" encoding="utf-8"?>
<!-- Generator: Adobe Illustrator 16.0.0, SVG Export Plug-In . SVG Version: 6.00 Build 0)  -->
<!DOCTYPE svg PUBLIC "-//W3C//DTD SVG 1.1//EN" "http://www.w3.org/Graphics/SVG/1.1/DTD/svg11.dtd">
<svg version="1.1" id="Layer_1" xmlns="http://www.w3.org/2000/svg" xmlns:xlink="http://www.w3.org/1999/xlink" x="0px" y="0px"
	 width="100px" height="100px" viewBox="0 0 100 100" enable-background="new 0 0 100 100" xml:space="preserve">
<g>
	<path fill-rule="evenodd" clip-rule="evenodd" d="M79.027,52.55c-1.432-2.981-2.988-6.148-4.438-9.354
		c-0.152-0.336,0.177-1.024,0.519-1.341c3.139-2.908,6.43-5.688,9.48-8.667c4.212-4.116,5.135-9.011,2.989-14.163
		c-2.117-5.08-6.419-7.929-12.45-8.615c-4.979-0.566-9.132,0.855-12.637,4.028c-6.024,5.454-12.105,10.857-18.09,16.346
		c-2.611,2.395-4.552,5.156-4.913,8.648c-0.613,5.931,2.793,11.333,8.797,13.821c5.128,2.126,6.179,6.548,2.503,10.438
		c-0.513,0.543-0.95,0.748-1.819,0.593c-10.232-1.819-18.91-9.743-20.564-19.212c-1.433-8.197,0.99-15.377,7.679-21.279
		c6.655-5.871,13.141-11.901,19.884-17.687c9.368-8.04,25.085-8.12,34.681-0.354c8.967,7.257,11.765,17.54,7.174,27.554
		c-1.139,2.484-2.888,4.894-4.924,6.861C88.387,44.525,83.516,48.58,79.027,52.55z"/>
	<path fill-rule="evenodd" clip-rule="evenodd" d="M20.868,47.198c1.486,3.407,2.969,6.806,4.533,10.391
		c-2.813,2.535-5.818,5.295-8.889,7.994c-3.335,2.933-5.377,6.376-5.226,10.655c0.207,5.817,3.313,10.121,9.164,12.401
		c5.791,2.257,11.517,1.51,16.147-2.436c6.652-5.669,13.129-11.52,19.429-17.507c6.03-5.73,6.068-13.003,0.24-18.854
		c-1.392-1.397-3.387-2.529-5.351-3.192c-3.992-1.347-5.504-7.452-1.911-10.367c0.453-0.367,1.302-0.627,1.885-0.53
		c10.616,1.754,19.572,10.669,20.682,20.343c0.893,7.771-1.556,14.443-7.688,19.977c-6.508,5.875-12.957,11.806-19.59,17.563
		c-10.603,9.2-27.942,8.236-37.718-1.679c-8.959-9.087-8.862-23.923,0.898-32.623c4.34-3.869,8.584-7.826,12.875-11.74
		C20.56,47.404,20.807,47.245,20.868,47.198z"/>
</g>
</svg>
