<?xml version="1.0" encoding="utf-8"?>
<!-- Generator: Adobe Illustrator 16.0.0, SVG Export Plug-In . SVG Version: 6.00 Build 0)  -->
<!DOCTYPE svg PUBLIC "-//W3C//DTD SVG 1.1//EN" "http://www.w3.org/Graphics/SVG/1.1/DTD/svg11.dtd">
<svg version="1.1" id="Layer_1" xmlns="http://www.w3.org/2000/svg" xmlns:xlink="http://www.w3.org/1999/xlink" x="0px" y="0px"
	 width="100px" height="80px" viewBox="0 0 100 80" enable-background="new 0 0 100 80" xml:space="preserve">
<g>
	<path fill-rule="evenodd" clip-rule="evenodd" d="M49.949,79.977c-12.051,0-24.103-0.046-36.153,0.023
		c-4.833,0.027-8.661-1.693-11.424-5.614C0.651,71.945-0.006,69.178,0,66.25c0.03-15.634,0.059-31.268,0.127-46.901
		C0.153,13.507,5.237,7.791,11.142,7.368c5.035-0.361,10.108-0.237,15.164-0.233c1.061,0,1.65-0.354,2.115-1.214
		c0.462-0.855,0.999-1.671,1.515-2.496c1.419-2.267,3.47-3.425,6.188-3.424c9.478,0.003,18.956,0,28.434,0.001
		c2.704,0,4.776,1.13,6.21,3.394c0.249,0.394,0.611,0.745,0.759,1.17c0.81,2.314,2.513,2.668,4.784,2.591
		c4.021-0.138,8.056-0.017,12.081,0.121c5.735,0.196,11.436,5.67,11.455,12.483c0.02,6.886,0.082,13.772,0.101,20.659
		c0.023,8.705,0.108,17.412,0,26.116c-0.071,5.776-2.707,10.187-8.218,12.462c-1.787,0.737-3.911,0.927-5.883,0.94
		C73.88,80.02,61.914,79.978,49.949,79.977z M75.085,43.09c-0.087-7.99-2.313-14.168-7.193-19.31
		c-6.371-6.713-14.134-9.312-23.276-7.191c-9.74,2.259-18.64,12.568-18.99,24.149c-0.258,8.522,2.82,15.646,9.177,21.416
		c7.204,6.537,17.751,8.005,26.217,3.355C70.265,60.433,74.726,52.426,75.085,43.09z M86.883,29.104c0-3.203,0-6.297,0-9.398
		c-2.402,0-4.692,0-7.011,0c0,3.183,0,6.274,0,9.398C82.243,29.104,84.507,29.104,86.883,29.104z"/>
	<path fill-rule="evenodd" clip-rule="evenodd" d="M35.267,43.333c-0.015-7.724,2.642-12.645,7.971-15.915
		c6.011-3.689,14.008-1.932,18.642,3.792c6.159,7.609,4.265,19.771-3.901,25.047c-5.876,3.796-13.951,2.556-18.474-2.771
		C36.633,50.103,35.195,46.255,35.267,43.333z"/>
</g>
</svg>
