<?xml version="1.0" encoding="utf-8"?>
<!-- Generator: Adobe Illustrator 16.0.0, SVG Export Plug-In . SVG Version: 6.00 Build 0)  -->
<!DOCTYPE svg PUBLIC "-//W3C//DTD SVG 1.1//EN" "http://www.w3.org/Graphics/SVG/1.1/DTD/svg11.dtd">
<svg version="1.1" id="Layer_1" xmlns="http://www.w3.org/2000/svg" xmlns:xlink="http://www.w3.org/1999/xlink" x="0px" y="0px"
	 width="66px" height="100px" viewBox="0 0 66 100" enable-background="new 0 0 66 100" xml:space="preserve">
<path fill-rule="evenodd" clip-rule="evenodd" d="M0.031,33.292C-0.364,16.554,11.911,4.599,23.65,1.303
	c18.272-5.13,36.744,5.344,41.287,23.41c1.858,7.392,1.287,14.66-1.777,21.579c-6.883,15.542-13.983,30.989-22.068,45.953
	c-1.152,2.133-2.567,4.196-4.202,5.977c-2.267,2.468-5.614,2.333-7.856-0.189c-1.23-1.384-2.258-2.993-3.157-4.622
	c-8.127-14.717-15.41-29.856-22.282-45.192C1.468,43.473-0.254,38.573,0.031,33.292z M32.992,52.859
	c11.374,0.103,19.549-8.953,19.892-18.815c0.44-12.711-9.848-20.827-19.557-20.836c-10.969-0.01-20.264,8.956-20.088,19.91
	C13.414,43.969,22.023,52.96,32.992,52.859z"/>
</svg>
