<?xml version="1.0" encoding="utf-8"?>
<!-- Generator: Adobe Illustrator 16.0.0, SVG Export Plug-In . SVG Version: 6.00 Build 0)  -->
<!DOCTYPE svg PUBLIC "-//W3C//DTD SVG 1.1//EN" "http://www.w3.org/Graphics/SVG/1.1/DTD/svg11.dtd">
<svg version="1.1" id="Layer_1" xmlns="http://www.w3.org/2000/svg" xmlns:xlink="http://www.w3.org/1999/xlink" x="0px" y="0px"
	 width="100px" height="100px" viewBox="0 0 100 100" enable-background="new 0 0 100 100" xml:space="preserve">
<path fill-rule="evenodd" clip-rule="evenodd" d="M41.155,0c22.739,0.502,38.428,17.119,40.958,35.082
	c1.474,10.468-0.651,20.235-6.533,29.061c-1.253,1.881-1.077,3.014,0.534,4.438c1.568,1.387,2.896,2.767,5.298,2.813
	c2.734,0.053,4.974,1.504,6.89,3.514c2.932,3.075,6.047,5.976,8.99,9.042c3.084,3.214,3.557,7.937,1.302,11.522
	c-2.384,3.793-6.863,5.471-11.093,3.997c-1.093-0.38-2.153-1.101-2.998-1.906c-3.365-3.211-6.621-6.536-9.955-9.779
	c-2-1.945-3.097-4.221-3.067-7.046c0.018-1.622-3.229-5.964-4.734-6.144c-0.739-0.088-1.659,0.418-2.336,0.886
	c-6.954,4.803-14.76,7.233-23.097,7.133c-10.979-0.133-20.79-3.787-28.653-11.721C0.717,58.837-2.864,44.361,2.291,28.469
	C7.306,13.007,18.592,3.743,34.696,0.618C36.888,0.193,39.159,0.181,41.155,0z M41.341,72.129
	c15.773,1.017,31.115-13.093,31.104-30.797C72.435,24.42,58.86,11.117,42.313,10.439C24.507,9.708,10.151,25.44,10.168,41.353
	C10.187,57.659,24.795,73.086,41.341,72.129z"/>
</svg>
