<?xml version="1.0" encoding="utf-8"?>
<!-- Generator: Adobe Illustrator 16.0.0, SVG Export Plug-In . SVG Version: 6.00 Build 0)  -->
<!DOCTYPE svg PUBLIC "-//W3C//DTD SVG 1.1//EN" "http://www.w3.org/Graphics/SVG/1.1/DTD/svg11.dtd">
<svg version="1.1" id="Layer_1" xmlns="http://www.w3.org/2000/svg" xmlns:xlink="http://www.w3.org/1999/xlink" x="0px" y="0px"
	 width="100px" height="100px" viewBox="0 0 100 100" enable-background="new 0 0 100 100" xml:space="preserve">
<path fill-rule="evenodd" clip-rule="evenodd" d="M37.51,49.53c-1.973-1.759-3.964-3.372-5.769-5.171
	c-9.538-9.506-19.029-19.061-28.537-28.596c-3.963-3.975-4.263-9.336-0.719-12.991c3.665-3.779,9.175-3.715,13.243,0.322
	c10.754,10.671,21.447,21.403,32.167,32.108c0.674,0.674,1.379,1.316,2.18,2.079c4.559-4.539,9.016-8.957,13.452-13.396
	c6.888-6.895,13.753-13.812,20.644-20.703c3.277-3.277,6.856-4.003,10.607-2.219c5.72,2.721,6.964,9.721,2.463,14.451
	c-3.358,3.528-6.876,6.905-10.323,10.349c-7.395,7.39-14.792,14.778-22.183,22.172c-0.616,0.616-1.2,1.264-1.913,2.017
	c0.593,0.653,1.089,1.25,1.635,1.795c10.775,10.775,21.551,21.55,32.339,32.313c4.058,4.049,4.287,9.451,0.522,13.181
	c-3.858,3.822-9.017,3.68-13.158-0.461c-10.651-10.648-21.27-21.33-31.905-31.994c-0.679-0.681-1.389-1.329-2.196-2.097
	c-0.791,0.753-1.495,1.398-2.17,2.072c-10.846,10.829-21.67,21.681-32.544,32.483c-3.194,3.172-7.852,3.624-11.137,1.266
	c-3.867-2.776-5.252-7.143-3.394-11.202c0.497-1.087,1.36-2.058,2.218-2.921c10.928-10.998,21.887-21.967,32.832-32.947
	C36.29,51.013,36.653,50.529,37.51,49.53z"/>
</svg>
