<?xml version="1.0" encoding="utf-8"?>
<!-- Generator: Adobe Illustrator 16.0.0, SVG Export Plug-In . SVG Version: 6.00 Build 0)  -->
<!DOCTYPE svg PUBLIC "-//W3C//DTD SVG 1.1//EN" "http://www.w3.org/Graphics/SVG/1.1/DTD/svg11.dtd">
<svg version="1.1" id="Layer_1" xmlns="http://www.w3.org/2000/svg" xmlns:xlink="http://www.w3.org/1999/xlink" x="0px" y="0px"
	 width="100px" height="100px" viewBox="0 0 100 100" enable-background="new 0 0 100 100" xml:space="preserve">
<path fill-rule="evenodd" clip-rule="evenodd" d="M0,49.764C-0.04,22.063,22.544,0.045,50.242,0
	C77.235-0.044,100.009,22.091,100,50.06C99.991,76.84,78.79,99.909,49.916,100C22.309,100.085,0,77.522,0,49.764z M18.129,33.653
	c2.125-0.232,3.875-0.476,5.634-0.591c0.854-0.056,1.355-0.324,1.73-1.13c0.992-2.132,2.054-4.233,3.158-6.309
	c0.272-0.512,0.738-1.028,1.244-1.292c6.721-3.501,13.467-6.952,20.194-10.44c0.28-0.146,0.65-0.574,0.61-0.81
	c-0.359-2.136-0.8-4.257-1.212-6.357C30.722,6.219,12.942,21.073,9.166,36.624c5.643,2.529,11.237,5.036,16.866,7.559
	c-0.25,0.792-0.364,1.362-0.604,1.875c-1.263,2.703-0.837,5.258,0.047,8.047c0.854,2.698,2.208,4.726,4.492,6.262
	c0.771,0.52,1.501,1.115,2.179,1.75c0.325,0.305,0.636,0.761,0.7,1.187c0.748,4.958,1.574,9.908,2.117,14.889
	c0.378,3.464,1.32,6.559,3.941,9.026c0.118-0.2,0.258-0.415,0.375-0.643c2.311-4.497,4.646-8.981,6.917-13.498
	c1.615-3.213,3.153-6.428,6.277-8.569c1.529-1.048,2.797-2.471,4.269-3.614c0.715-0.555,0.85-1.096,0.696-1.926
	c-0.404-2.18-0.707-4.379-1.103-6.56c-0.072-0.394-0.319-0.828-0.617-1.098c-3.368-3.034-6.748-6.056-10.167-9.031
	c-0.372-0.323-1.03-0.511-1.528-0.463c-3.181,0.304-6.352,0.72-9.532,1.032c-0.979,0.096-2.223,0.36-2.93-0.096
	C27.123,39.893,22.804,36.852,18.129,33.653z M63.38,36.34c0.583,0.505,1.107,0.975,1.648,1.426
	c2.258,1.886,4.029,4.334,7.007,5.374c2.798,0.977,5.454,2.353,8.21,3.459c0.97,0.39,1.603,0.974,2.123,1.854
	c2.121,3.593,4.355,7.12,6.417,10.747c0.641,1.127,1.532,1.377,2.512,1.134c0.45-0.111,0.885-0.954,1.025-1.538
	c1.162-4.845,1.333-9.74,0.656-14.677c-1.44-10.494-6.168-19.25-13.92-26.408c-0.436-0.402-1.016-0.84-1.567-0.897
	c-5.158-0.535-10.325-0.998-15.491-1.447c-0.264-0.023-0.678,0.193-0.813,0.422c-1.503,2.534-1.337,3.206,0.68,5.286
	c2.426,2.502,4.741,5.113,7.074,7.645C67.006,31.371,65.256,33.768,63.38,36.34z"/>
</svg>
