<?xml version="1.0" encoding="utf-8"?>
<!-- Generator: Adobe Illustrator 16.0.0, SVG Export Plug-In . SVG Version: 6.00 Build 0)  -->
<!DOCTYPE svg PUBLIC "-//W3C//DTD SVG 1.1//EN" "http://www.w3.org/Graphics/SVG/1.1/DTD/svg11.dtd">
<svg version="1.1" id="Layer_1" xmlns="http://www.w3.org/2000/svg" xmlns:xlink="http://www.w3.org/1999/xlink" x="0px" y="0px"
	 width="100px" height="92px" viewBox="0 0 100 92" enable-background="new 0 0 100 92" xml:space="preserve">
<path fill-rule="evenodd" clip-rule="evenodd" d="M88.553,46.199c-0.829,2.449-1.487,4.094-1.944,5.791
	c-2.966,11.018-6.01,22.015-8.767,33.084c-1.186,4.76-3.691,6.979-8.682,6.922c-12.733-0.147-25.469-0.152-38.202,0.002
	c-4.989,0.06-7.483-2.11-8.649-6.899c-2.581-10.602-5.484-21.125-8.305-31.666c-0.585-2.189-1.387-4.322-2.338-7.248
	C9.66,47.499,8.31,48.99,6.752,49.25c-2.03,0.339-5.054,0.449-6.107-0.727c-1.021-1.14-0.724-4.359,0.153-6.069
	c0.986-1.924,3.264-3.188,4.989-4.727C18.752,26.167,31.72,14.612,44.684,3.052c4.538-4.046,6.068-4.058,10.529-0.1
	c13.856,12.294,27.721,24.581,41.576,36.876c0.865,0.768,2.185,1.469,2.417,2.416c0.5,2.045,1.312,4.926,0.34,6.159
	c-0.945,1.2-4.006,1.176-6.041,0.919C92.065,49.141,90.788,47.676,88.553,46.199z M50.36,52.194
	c7.135-0.035,12.419-4.853,12.423-11.326c0.005-6.731-5.325-11.549-12.753-11.529c-7.438,0.02-12.896,4.968-12.777,11.585
	C37.37,47.468,42.911,52.232,50.36,52.194z M56.833,70.159c0.037-4.115-2.617-6.945-6.578-7.015
	c-4.14-0.074-7.186,2.985-7.081,7.114c0.1,3.957,2.985,6.774,6.932,6.771C54.106,77.024,56.797,74.276,56.833,70.159z"/>
</svg>
