<?xml version="1.0" encoding="utf-8"?>
<!-- Generator: Adobe Illustrator 16.0.0, SVG Export Plug-In . SVG Version: 6.00 Build 0)  -->
<!DOCTYPE svg PUBLIC "-//W3C//DTD SVG 1.1//EN" "http://www.w3.org/Graphics/SVG/1.1/DTD/svg11.dtd">
<svg version="1.1" id="Layer_1" xmlns="http://www.w3.org/2000/svg" xmlns:xlink="http://www.w3.org/1999/xlink" x="0px" y="0px"
	 width="100px" height="70px" viewBox="0 0 100 70" enable-background="new 0 0 100 70" xml:space="preserve">
<g>
	<path fill-rule="evenodd" clip-rule="evenodd" d="M56.688,19.478c1.667,0.397,2.206,1.7,2.306,3.069
		c0.298,4.08-1.071,7.58-4.132,10.375c-0.306,0.28-0.721,0.568-1.111,0.607c-0.742,0.075-0.94,0.531-1.166,1.103
		c-1.661,4.211-3.928,8.05-7.244,11.205c-2.191,2.083-4.742,3.382-7.895,3.145c-2.185-0.164-3.995-1.126-5.602-2.55
		c-3.667-3.25-6.181-7.263-7.981-11.752c-0.232-0.578-0.62-0.864-1.193-1.201c-1.078-0.632-2.11-1.505-2.847-2.505
		c-1.457-1.976-2.33-4.244-2.542-6.716c-0.118-1.375,0.263-2.635,1.014-3.782c0.156-0.238,0.386-0.54,0.63-0.592
		c0.992-0.209,0.969-0.952,1.048-1.694c0.402-3.766,1.372-7.371,3.251-10.69c1.29-2.277,3.086-3.946,5.807-4.399
		c0.177-0.03,0.374-0.104,0.505-0.221c1.795-1.582,3.969-2.313,6.283-2.647c3.371-0.487,6.693-0.215,9.938,0.849
		c2.813,0.922,4.781,2.916,6.517,5.151c2.614,3.365,3.884,7.241,4.217,11.445C56.538,18.26,56.617,18.839,56.688,19.478z"/>
	<path fill-rule="evenodd" clip-rule="evenodd" d="M38.233,70c-11.816,0-23.632,0-35.449,0c-1.679,0-1.937-0.193-2.284-1.815
		c-0.622-2.899-0.707-5.816-0.012-8.707c0.666-2.767,2.359-4.714,5.151-5.528c3.859-1.124,7.737-2.189,11.627-3.2
		c2.335-0.606,4.712-1.052,7.066-1.585c0.537-0.122,0.875,0.006,1.212,0.473c1.86,2.577,3.995,4.89,6.843,6.433
		c4.503,2.438,8.831,1.922,12.971-0.878c2.201-1.488,3.969-3.421,5.547-5.529c0.269-0.359,0.512-0.662,1.043-0.526
		c6.181,1.576,12.373,3.11,18.542,4.729c3.082,0.809,4.772,2.975,5.522,5.968c0.792,3.161,0.596,6.279-0.345,9.368
		c-0.073,0.237-0.334,0.517-0.568,0.589c-0.451,0.141-0.943,0.202-1.419,0.203C61.866,70.002,50.05,70,38.233,70z"/>
	<path fill-rule="evenodd" clip-rule="evenodd" d="M79.924,36.482c-2.643,0-5.193,0.016-7.743-0.006
		c-1.491-0.013-2.647-0.672-3.351-1.981c-1.248-2.319-0.228-6.251,3.619-6.197c2.395,0.034,4.79,0,7.185-0.005
		c0.051,0,0.102-0.025,0.291-0.074c0-0.268-0.003-0.573,0.001-0.878c0.03-2.183-0.055-4.375,0.124-6.546
		c0.186-2.252,2.119-3.663,4.472-3.516c2.095,0.131,3.72,1.819,3.756,3.971c0.034,2.025,0.008,4.051,0.008,6.077
		c0,0.289,0,0.579,0,0.978c0.351,0,0.636,0,0.922,0c2.233,0,4.467-0.009,6.701,0.002c2.494,0.012,4.106,1.658,4.092,4.156
		c-0.014,2.286-1.769,4.011-4.1,4.018c-2.499,0.007-4.998,0.002-7.615,0.002c0,0.329,0,0.609,0,0.89c0,1.999,0.01,3.997-0.003,5.996
		c-0.014,2.03-1.288,3.615-3.307,4.069c-1.952,0.439-3.617-0.474-4.603-2.28c-0.349-0.639-0.409-1.482-0.429-2.235
		C79.888,40.819,79.924,38.714,79.924,36.482z"/>
</g>
</svg>
