<?xml version="1.0" encoding="utf-8"?>
<!-- Generator: Adobe Illustrator 16.0.0, SVG Export Plug-In . SVG Version: 6.00 Build 0)  -->
<!DOCTYPE svg PUBLIC "-//W3C//DTD SVG 1.1//EN" "http://www.w3.org/Graphics/SVG/1.1/DTD/svg11.dtd">
<svg version="1.1" id="Layer_1" xmlns="http://www.w3.org/2000/svg" xmlns:xlink="http://www.w3.org/1999/xlink" x="0px" y="0px"
	 width="98px" height="92px" viewBox="0 0 98 92" enable-background="new 0 0 98 92" xml:space="preserve">
<g>
	<path fill-rule="evenodd" clip-rule="evenodd" d="M0.014,9.401c13.692,11.265,26.751,21.621,39.35,32.516
		c7.661,6.627,12.479,5.977,19.271,0.079c12.439-10.803,25.393-21.007,38.767-31.98c0.259,1.845,0.564,3.016,0.566,4.187
		c0.033,14.409,0.05,28.817,0.006,43.226c-0.021,6.876-2.337,9.188-9.25,9.205c-17.296,0.042-34.593-0.104-51.885,0.148
		c-2.472,0.036-5.459,1.281-7.278,2.976C22.675,76.167,16.27,83.092,9.452,89.578c-1.451,1.381-4.55,2.92-5.704,2.268
		c-1.782-1.008-3.56-3.833-3.58-5.903C-0.07,60.787,0.014,35.63,0.014,9.401z"/>
	<path fill-rule="evenodd" clip-rule="evenodd" d="M10.207,0c26.086,0,52.173,0,79.342,0c-10.629,8.232-20.47,15.871-30.329,23.487
		c-10.062,7.773-10.065,7.759-20.12,0.015C29.327,15.975,19.543,8.46,9.764,0.94C9.912,0.626,10.059,0.313,10.207,0z"/>
</g>
</svg>
