<?xml version="1.0" encoding="utf-8"?>
<!-- Generator: Adobe Illustrator 16.0.0, SVG Export Plug-In . SVG Version: 6.00 Build 0)  -->
<!DOCTYPE svg PUBLIC "-//W3C//DTD SVG 1.1//EN" "http://www.w3.org/Graphics/SVG/1.1/DTD/svg11.dtd">
<svg version="1.1" id="Layer_1" xmlns="http://www.w3.org/2000/svg" xmlns:xlink="http://www.w3.org/1999/xlink" x="0px" y="0px"
	 width="46px" height="92px" viewBox="0 0 46 92" enable-background="new 0 0 46 92" xml:space="preserve">
<path fill-rule="evenodd" clip-rule="evenodd" d="M24.292,31.299c6.446,0,11.735-0.08,17.022,0.024
	c4.725,0.093,5.857,1.852,3.487,5.919c-10.185,17.47-20.482,34.875-30.862,52.229c-0.695,1.162-2.42,1.7-3.667,2.529
	c-0.41-1.666-1.394-3.43-1.137-4.982c1.834-11.051,3.724-22.1,6.023-33.059c0.935-4.453-0.866-5.41-4.555-5.306
	c-13.882,0.391-11-1.09-8.583-11.622C4.451,26.437,7.315,15.941,9.602,5.317c0.897-4.167,2.897-5.496,6.888-5.298
	c4.98,0.247,9.981,0.116,14.972,0.049c4.026-0.053,5.116,1.677,3.506,5.335c-2.829,6.427-5.656,12.854-8.414,19.313
	C25.791,26.502,25.278,28.397,24.292,31.299z"/>
</svg>
