<?xml version="1.0" encoding="utf-8"?>
<!-- Generator: Adobe Illustrator 16.0.0, SVG Export Plug-In . SVG Version: 6.00 Build 0)  -->
<!DOCTYPE svg PUBLIC "-//W3C//DTD SVG 1.1//EN" "http://www.w3.org/Graphics/SVG/1.1/DTD/svg11.dtd">
<svg version="1.1" id="Layer_1" xmlns="http://www.w3.org/2000/svg" xmlns:xlink="http://www.w3.org/1999/xlink" x="0px" y="0px"
	 width="100px" height="102px" viewBox="0 0 100 102" enable-background="new 0 0 100 102" xml:space="preserve">
<g>
	<path fill-rule="evenodd" clip-rule="evenodd" d="M20.967,10.66c0-2.141-0.007-4.267,0.001-6.392
		c0.012-2.94,1.321-4.24,4.278-4.248c2.804-0.008,5.609-0.016,8.413,0.002c2.776,0.017,4.219,1.471,4.227,4.224
		c0.006,2.125,0.001,4.251,0.001,6.466c8.085,0,16.063,0,24.275,0c0-2.046-0.011-4.112,0.007-6.177
		c0.005-0.677-0.022-1.381,0.153-2.023c0.39-1.432,1.867-2.458,3.583-2.479c3.172-0.041,6.345-0.052,9.517,0.001
		c2.133,0.037,3.568,1.546,3.594,3.679c0.028,2.306,0.006,4.612,0.006,7.089c1.93,0,3.751-0.021,5.572,0.005
		c2.479,0.035,4.973-0.052,7.432,0.197c4.565,0.461,7.924,4.225,7.952,8.769c0.04,6.446,0.011,12.893,0.011,19.34
		c0,17.797,0.005,35.594-0.003,53.391c-0.002,4.501-2.53,7.988-6.637,9.063c-1.138,0.299-2.356,0.412-3.537,0.413
		c-26.573,0.022-53.146,0.021-79.72,0.014c-5.165-0.001-8.67-2.459-9.789-6.883c-0.23-0.91-0.29-1.883-0.291-2.826
		c-0.015-23.835-0.014-47.67-0.01-71.506c0.001-4.956,2.427-8.46,6.707-9.568c1.095-0.284,2.265-0.373,3.403-0.39
		c3.447-0.053,6.896-0.027,10.344-0.035C20.544,10.787,20.632,10.745,20.967,10.66z M50.092,21.792c-12.09,0-24.181-0.001-36.271,0
		c-2.611,0-3.081,0.448-3.081,2.98c-0.002,21.109-0.003,42.219,0.001,63.328c0,2.538,0.372,2.905,2.955,2.906
		c24.181,0.004,48.361,0.004,72.542,0c2.655-0.001,3.002-0.361,3.003-2.988c0-21.019,0-42.037,0-63.056
		c0-2.801-0.365-3.17-3.153-3.17C74.088,21.792,62.09,21.792,50.092,21.792z"/>
	<path fill-rule="evenodd" clip-rule="evenodd" d="M43.133,36.858c0.012-3.839,3.019-6.765,6.929-6.742
		c3.772,0.023,6.819,3.022,6.852,6.746c0.031,3.687-3.18,6.87-6.922,6.86C46.162,43.713,43.122,40.67,43.133,36.858z"/>
	<path fill-rule="evenodd" clip-rule="evenodd" d="M50.08,70.15c3.719,0.028,6.817,3.096,6.833,6.762
		c0.016,3.671-3.209,6.847-6.938,6.832c-3.792-0.015-6.867-3.104-6.843-6.872C43.158,73.066,46.204,70.119,50.08,70.15z"/>
	<path fill-rule="evenodd" clip-rule="evenodd" d="M49.978,63.674c-3.821,0.007-6.819-2.931-6.844-6.706
		c-0.024-3.821,3-6.823,6.87-6.818c3.78,0.004,6.839,2.977,6.911,6.713C56.984,60.569,53.83,63.668,49.978,63.674z"/>
	<path fill-rule="evenodd" clip-rule="evenodd" d="M27.132,30.117c3.637-0.013,6.649,3.043,6.645,6.742
		c-0.004,3.7-3.018,6.848-6.572,6.866c-3.779,0.019-7.189-3.198-7.208-6.8C19.977,33.276,23.273,30.132,27.132,30.117z"/>
	<path fill-rule="evenodd" clip-rule="evenodd" d="M27.186,70.146c3.571-0.013,6.539,2.979,6.587,6.639
		c0.05,3.739-3.025,6.976-6.612,6.961c-3.794-0.018-7.154-3.224-7.165-6.837C19.986,73.299,23.326,70.158,27.186,70.146z"/>
	<path fill-rule="evenodd" clip-rule="evenodd" d="M27.115,63.664c-3.862-0.011-7.137-3.157-7.119-6.84
		c0.018-3.6,3.399-6.689,7.307-6.677c3.546,0.011,6.498,3.102,6.474,6.778C33.753,60.635,30.748,63.675,27.115,63.664z"/>
	<path fill-rule="evenodd" clip-rule="evenodd" d="M66.243,36.912c-0.04-3.73,2.893-6.769,6.558-6.794
		c3.849-0.027,7.16,3.095,7.167,6.757c0.007,3.553-3.284,6.776-6.992,6.848C69.336,43.792,66.284,40.706,66.243,36.912z"/>
	<path fill-rule="evenodd" clip-rule="evenodd" d="M72.906,63.664c-3.731,0.014-6.679-2.995-6.665-6.805
		c0.014-3.771,2.928-6.73,6.607-6.711c3.776,0.02,7.07,3.106,7.118,6.668C80.016,60.475,76.743,63.649,72.906,63.664z"/>
</g>
</svg>
