<?xml version="1.0" encoding="utf-8"?>
<!-- Generator: Adobe Illustrator 16.0.0, SVG Export Plug-In . SVG Version: 6.00 Build 0)  -->
<!DOCTYPE svg PUBLIC "-//W3C//DTD SVG 1.1//EN" "http://www.w3.org/Graphics/SVG/1.1/DTD/svg11.dtd">
<svg version="1.1" id="Layer_1" xmlns="http://www.w3.org/2000/svg" xmlns:xlink="http://www.w3.org/1999/xlink" x="0px" y="0px"
	 width="100px" height="71px" viewBox="0 0 100 71" enable-background="new 0 0 100 71" xml:space="preserve">
<path fill-rule="evenodd" clip-rule="evenodd" d="M51.615,25.844c4.412,0,8.636,0.048,12.858-0.008
	c15.001-0.2,27.421,9.111,32.896,21.777c2.075,4.801,3.04,9.902,2.468,15.155c-0.429,3.938-3.678,7.271-7.439,7.982
	c-4.282,0.811-8.367-0.939-10.274-4.724c-0.781-1.549-1.258-3.382-1.367-5.117c-0.451-7.175-4.668-13.02-11.26-15.01
	c-1.651-0.498-3.439-0.696-5.171-0.74c-4.176-0.104-8.356-0.033-12.71-0.033c0,0.54,0,0.983,0,1.428
	c0,5.896-0.05,11.791,0.021,17.686c0.034,2.79-1.197,4.773-3.565,5.989c-2.379,1.221-4.688,0.994-6.912-0.688
	c-10.035-7.585-20.112-15.113-30.175-22.662c-2.808-2.106-5.592-4.244-8.429-6.312c-3.09-2.253-3.504-7.17-0.549-9.621
	c3.406-2.825,7.001-5.423,10.541-8.085c9.353-7.034,18.718-14.05,28.082-21.068c2.29-1.716,4.729-2.471,7.463-1.039
	c2.273,1.19,3.502,3.061,3.514,5.631c0.027,5.979,0.009,11.958,0.009,17.938C51.615,24.774,51.615,25.226,51.615,25.844z"/>
</svg>
