<?xml version="1.0" encoding="utf-8"?>
<!-- Generator: Adobe Illustrator 16.0.0, SVG Export Plug-In . SVG Version: 6.00 Build 0)  -->
<!DOCTYPE svg PUBLIC "-//W3C//DTD SVG 1.1//EN" "http://www.w3.org/Graphics/SVG/1.1/DTD/svg11.dtd">
<svg version="1.1" id="Layer_1" xmlns="http://www.w3.org/2000/svg" xmlns:xlink="http://www.w3.org/1999/xlink" x="0px" y="0px"
	 width="100px" height="28.001px" viewBox="0 0 100 28.001" enable-background="new 0 0 100 28.001" xml:space="preserve">
<g>
	<path fill-rule="evenodd" clip-rule="evenodd" d="M74.011,14.02c0-6.24,4.068-12.062,9.554-13.532
		c7.875-2.11,14.395,3.264,15.978,9.926c1.465,6.163-0.657,12.018-5.436,15.302c-6.51,4.473-15.417,2.342-19.074-6.302
		c-0.359-0.847-0.593-1.765-0.765-2.673C74.103,15.867,74.093,14.962,74.011,14.02z"/>
	<path fill-rule="evenodd" clip-rule="evenodd" d="M37.027,14.589C36.971,7.76,41.076,1.93,46.62,0.473
		c7.014-1.844,14.041,2.444,15.851,9.673c1.654,6.603-1.014,13.392-6.581,16.312c-8.499,4.457-16.866-1.385-18.542-9.246
		C37.132,16.196,37.092,15.144,37.027,14.589z"/>
	<path fill-rule="evenodd" clip-rule="evenodd" d="M26.026,14.136c-0.148,6.451-4.293,12.076-10.047,13.46
		c-7.188,1.729-14.51-3.183-15.715-10.603C-0.718,10.951,1.009,5.88,5.979,2.267c7.091-5.156,17.162-1.075,19.416,7.802
		C25.73,11.391,25.821,12.778,26.026,14.136z"/>
</g>
</svg>
